<?xml version="1.0" encoding="utf-8"?>
<!-- Generator: Adobe Illustrator 21.0.0, SVG Export Plug-In . SVG Version: 6.00 Build 0)  -->
<svg version="1.1"
	 id="图层_1" xmlns:cc="http://creativecommons.org/ns#" xmlns:dc="http://purl.org/dc/elements/1.1/" xmlns:inkscape="http://www.inkscape.org/namespaces/inkscape" xmlns:rdf="http://www.w3.org/1999/02/22-rdf-syntax-ns#" xmlns:sodipodi="http://sodipodi.sourceforge.net/DTD/sodipodi-0.dtd" xmlns:svg="http://www.w3.org/2000/svg"
	 xmlns="http://www.w3.org/2000/svg" xmlns:xlink="http://www.w3.org/1999/xlink" x="0px" y="0px" viewBox="0 0 128 160"
	 style="enable-background:new 0 0 128 160;" xml:space="preserve">
<path d="M74.1,101.6c-0.3,0.1,0.5,0.3,0.2,0.3V114l-49.5,0.2l0.1-6.4h18c0.9,0,2.5-0.2,2.5-1.4V52.9c0-1.8-1.7-2.7-2.7-2.7H25.2v-14
	l49,0.1c0,0,0,44.9,1.1,45.5c0.2,0,0.5-0.1,0.7-0.1s1.4,0.1,1.6,0.1c0.2-0.1,0.2-49.1,0.2-49.1H21.2l0.1,3.2v77.2l-0.1,4.2h56.1
	l0.1-15.9c-0.3,0.1-1,0.2-1.3,0.2C75.7,101.7,74.3,101.6,74.1,101.6z M25.1,53.3h17.3l-0.2,51.3H24.8L25.1,53.3z"/>
<g>
	<path d="M74.2,53.3v28.5c0,0,3.1,0,3.4-0.1l0.4-25l24.3-0.2l-0.4,57.2l-24.7-0.2l0.1-12.3c-0.3,0.1-1.1,0.2-1.4,0.2s0.4,0.1,0.2,0
		c-0.3,0.1-1.6,0.2-1.9,0.2l1.1,15.6l29.9-0.2V53L74.2,53.3z"/>
</g>
<g>
	<path d="M59.6,50.2H24.1V34.3H58v15.9 M61.7,50.2V34.3V33h-2.1H24.1l-2.7-0.2v1.3V50v2.1l3.5,0.8l36.8,0.6
		C61.7,53.5,61.7,50.2,61.7,50.2z"/>
</g>
</svg>
