<?xml version="1.0" encoding="utf-8"?>
<!-- Generator: Adobe Illustrator 21.0.0, SVG Export Plug-In . SVG Version: 6.00 Build 0)  -->
<svg version="1.1" id="图层_1" xmlns="http://www.w3.org/2000/svg" xmlns:xlink="http://www.w3.org/1999/xlink" x="0px" y="0px"
	 viewBox="0 0 512 640" style="enable-background:new 0 0 512 640;" xml:space="preserve">
<g>
	<path d="M2,75.7v271.2l8.9,89.3H501l8.9-89.3V75.7H2L2,75.7z M493.6,92.1v245.8H18.4V92.1H493.6z M25.8,419.9l-6.6-65.5h473.5
		l-6.6,65.5H25.8z"/>
	<path d="M124.9,288.3v16.9h16.4v-16.9c34.1-3.8,61.3-30.9,65.1-65.1h16.9v-16.4h-16.9c-3.8-34.1-30.9-61.3-65.1-65.1v-16.9h-16.4
		v16.9c-34.1,3.8-61.3,30.9-65.1,65.1H43v16.4h16.9C63.6,257.4,90.8,284.5,124.9,288.3z M124.9,158.3V174h16.4v-15.7
		c25.1,3.6,44.9,23.4,48.5,48.5h-15.7v16.4h15.7c-3.6,25.1-23.4,44.9-48.5,48.5V256h-16.4v15.7c-25.1-3.6-44.9-23.4-48.5-48.5h15.7
		v-16.4H76.4C80,181.8,99.8,161.9,124.9,158.3z"/>
	<path d="M370.7,288.3v16.9h16.4v-16.9c34.1-3.8,61.3-30.9,65.1-65.1H469v-16.4h-16.9c-3.8-34.1-30.9-61.3-65.1-65.1v-16.9h-16.4
		v16.9c-34.1,3.8-61.3,30.9-65.1,65.1h-16.9v16.4h16.9C309.4,257.4,336.6,284.5,370.7,288.3z M370.7,158.3V174h16.4v-15.7
		c25.1,3.6,44.9,23.4,48.5,48.5h-15.7v16.4h15.7c-3.6,25.1-23.4,44.9-48.5,48.5V256h-16.4v15.7c-25.1-3.6-44.9-23.4-48.5-48.5h15.7
		v-16.4h-15.7C325.8,181.8,345.6,161.9,370.7,158.3z"/>
	<path d="M133.1,362.5c-13.6,0-24.6,11-24.6,24.6s11,24.6,24.6,24.6s24.6-11,24.6-24.6S146.7,362.5,133.1,362.5z M133.1,395.3
		c-4.5,0-8.2-3.7-8.2-8.2s3.7-8.2,8.2-8.2s8.2,3.7,8.2,8.2C141.3,391.6,137.6,395.3,133.1,395.3z"/>
	<path d="M378.9,362.5c-13.6,0-24.6,11-24.6,24.6s11,24.6,24.6,24.6s24.6-11,24.6-24.6S392.5,362.5,378.9,362.5z M378.9,395.3
		c-4.5,0-8.2-3.7-8.2-8.2s3.7-8.2,8.2-8.2s8.2,3.7,8.2,8.2C387.1,391.6,383.4,395.3,378.9,395.3z"/>
	<path d="M256,362.5c-13.6,0-24.6,11-24.6,24.6s11,24.6,24.6,24.6s24.6-11,24.6-24.6S269.6,362.5,256,362.5z M256,395.3
		c-4.5,0-8.2-3.7-8.2-8.2s3.7-8.2,8.2-8.2s8.2,3.7,8.2,8.2C264.2,391.6,260.5,395.3,256,395.3z"/>
	<rect x="247.8" y="174.1" width="16.4" height="16.4"/>
	<rect x="247.8" y="206.8" width="16.4" height="16.4"/>
	<rect x="247.8" y="239.6" width="16.4" height="16.4"/>
</g>
</svg>
