<?xml version="1.0" encoding="utf-8"?>
<!-- Generator: Adobe Illustrator 21.0.0, SVG Export Plug-In . SVG Version: 6.00 Build 0)  -->
<svg version="1.1"
	 id="图层_1" xmlns:cc="http://creativecommons.org/ns#" xmlns:dc="http://purl.org/dc/elements/1.1/" xmlns:inkscape="http://www.inkscape.org/namespaces/inkscape" xmlns:rdf="http://www.w3.org/1999/02/22-rdf-syntax-ns#" xmlns:sodipodi="http://sodipodi.sourceforge.net/DTD/sodipodi-0.dtd" xmlns:svg="http://www.w3.org/2000/svg"
	 xmlns="http://www.w3.org/2000/svg" xmlns:xlink="http://www.w3.org/1999/xlink" x="0px" y="0px" viewBox="0 0 128 160"
	 style="enable-background:new 0 0 128 160;" xml:space="preserve">
<path d="M49,31.5C22.8,31.5,1.5,52.8,1.5,79s21.3,47.5,47.5,47.5S96.5,105.2,96.5,79S75.2,31.5,49,31.5z M49,36.5
	c23.4,0,42.5,19.1,42.5,42.5S72.4,121.5,49,121.5S6.5,102.4,6.5,79S25.6,36.5,49,36.5z M49,46.5c-17.9,0-32.5,14.6-32.5,32.5
	s14.6,32.5,32.5,32.5S81.5,96.9,81.5,79S66.9,46.5,49,46.5z M49,51.5c15.2,0,27.5,12.3,27.5,27.5S64.2,106.5,49,106.5
	S21.5,94.2,21.5,79S33.8,51.5,49,51.5z M98.6,61.8c0.6,1.8,1.1,3.5,1.5,5.4C112.4,70,121.5,81,121.5,94c0,15.2-12.3,27.5-27.5,27.5
	c-4,0-7.8-0.9-11.2-2.4c-1.4,1.2-2.9,2.3-4.4,3.4c4.6,2.6,10,4,15.6,4c17.9,0,32.5-14.6,32.5-32.5C126.5,77.6,114.4,64.1,98.6,61.8z
	 M101.4,76.9c0,0.7,0.1,1.4,0.1,2.1c0,1.2-0.1,2.4-0.1,3.6c4,2.7,6.6,7.3,6.6,12.4c0,8.3-6.7,15-15,15c-0.5,0-1.1,0-1.6-0.1
	c-1.1,1.5-2.3,3-3.6,4.4c1.7,0.4,3.4,0.7,5.2,0.7c11,0,20-9,20-20C113,87,108.3,80.1,101.4,76.9z"/>
</svg>
