<?xml version="1.0" encoding="utf-8"?>
<!-- Generator: Adobe Illustrator 21.0.0, SVG Export Plug-In . SVG Version: 6.00 Build 0)  -->
<svg version="1.1" id="图层_1" xmlns="http://www.w3.org/2000/svg" xmlns:xlink="http://www.w3.org/1999/xlink" x="0px" y="0px"
	 viewBox="0 0 512 640" style="enable-background:new 0 0 512 640;" xml:space="preserve">
<g>
	<path d="M510,75.7H2v344.1h32.8v16.4h16.4v-16.4h409.7v16.4h16.4v-16.4H510V75.7z M493.6,403.5H18.4V92.1h475.2V403.5z"/>
	<path d="M362.5,116.7H43v262.2h319.5V116.7z M346.1,362.5H59.4V133.1h286.8L346.1,362.5L346.1,362.5z"/>
	<rect x="92.1" y="321.5" width="221.2" height="16.4"/>
	<rect x="190.5" y="157.7" width="16.4" height="16.4"/>
	<rect x="223.2" y="157.7" width="16.4" height="16.4"/>
	<rect x="157.7" y="157.7" width="16.4" height="16.4"/>
	<path d="M477.2,116.7h-98.3v163.9h98.3V116.7z M460.8,264.2h-65.5V133.1h65.5V264.2z"/>
	<path d="M428.1,297c-22.6,0-41,18.4-41,41s18.4,41,41,41s41-18.4,41-41C469,315.3,450.7,297,428.1,297z M428.1,362.5
		c-13.6,0-24.6-11-24.6-24.6s11-24.6,24.6-24.6s24.6,11,24.6,24.6S441.6,362.5,428.1,362.5z"/>
</g>
</svg>
