<?xml version="1.0" encoding="utf-8"?>
<!-- Generator: Adobe Illustrator 21.0.0, SVG Export Plug-In . SVG Version: 6.00 Build 0)  -->
<svg version="1.1"
	 id="图层_1" xmlns:cc="http://creativecommons.org/ns#" xmlns:dc="http://purl.org/dc/elements/1.1/" xmlns:inkscape="http://www.inkscape.org/namespaces/inkscape" xmlns:rdf="http://www.w3.org/1999/02/22-rdf-syntax-ns#" xmlns:sodipodi="http://sodipodi.sourceforge.net/DTD/sodipodi-0.dtd" xmlns:svg="http://www.w3.org/2000/svg"
	 xmlns="http://www.w3.org/2000/svg" xmlns:xlink="http://www.w3.org/1999/xlink" x="0px" y="0px" viewBox="0 0 128 160"
	 style="enable-background:new 0 0 128 160;" xml:space="preserve">
<path d="M49.5,117H99c6.9,0,12.5-5.6,12.5-12.5v-90C111.5,7.6,105.9,2,99,2H19c-1.4,0-2.5,1.1-2.5,2.5v110c0,1.4,1.1,2.5,2.5,2.5
	h17.5 M21.5,6.5h5v105h-5V6.5z M31.5,6.5H99c4.1,0,7.5,3.4,7.5,7.5v16.5h-75V6.5z M31.5,35.5h75v26h-75V35.5z M49,45.5
	c-1.4,0-2.5,1.1-2.5,2.5s1.1,2.5,2.5,2.5h40c1.4,0,2.5-1.1,2.5-2.5s-1.1-2.5-2.5-2.5H49z M31.5,66.5h75V104c0,4.1-3.4,7.5-7.5,7.5
	H31.5V66.5z M41.5,116.5h3"/>
</svg>
