<?xml version="1.0" encoding="utf-8"?>
<!-- Generator: Adobe Illustrator 21.0.0, SVG Export Plug-In . SVG Version: 6.00 Build 0)  -->
<svg version="1.1"
	 id="图层_1" xmlns:cc="http://creativecommons.org/ns#" xmlns:dc="http://purl.org/dc/elements/1.1/" xmlns:inkscape="http://www.inkscape.org/namespaces/inkscape" xmlns:rdf="http://www.w3.org/1999/02/22-rdf-syntax-ns#" xmlns:sodipodi="http://sodipodi.sourceforge.net/DTD/sodipodi-0.dtd" xmlns:svg="http://www.w3.org/2000/svg"
	 xmlns="http://www.w3.org/2000/svg" xmlns:xlink="http://www.w3.org/1999/xlink" x="0px" y="0px" viewBox="0 0 128 160"
	 style="enable-background:new 0 0 128 160;" xml:space="preserve">
<path d="M39,1.5c-1.4,0-2.5,1.1-2.5,2.5v50c0,1.4,1.1,2.5,2.5,2.5s2.5-1.1,2.5-2.5V6.5h45V14c0,1.4,1.1,2.5,2.5,2.5s2.5-1.1,2.5-2.5
	V4c0-1.4-1.1-2.5-2.5-2.5H39z M79,21.5c-1.3,0-2.4,1-2.5,2.3l-2.9,35.1C73,66,75.4,73,80.2,78.3c4.2,4.6,10.1,7.5,16.3,8.1v35.1h-5
	V91.7c0-1.4-1.1-2.5-2.5-2.5s-2.5,1.1-2.5,2.5v14.8H64c-1.4,0-2.5,1.1-2.5,2.5s1.1,2.5,2.5,2.5h22.5v10H76H56.5V64
	c0-1.4-1.1-2.5-2.5-2.5H4c-1.4,0-2.5,1.1-2.5,2.5v60c0,1.4,1.1,2.5,2.5,2.5h35h15h22h13h33c1.4,0,2.5-1.1,2.5-2.5s-1.1-2.5-2.5-2.5
	h-20.5V86.4c6.2-0.6,12-3.5,16.3-8.1c4.8-5.2,7.2-12.3,6.6-19.4l-2.9-35.1c-0.1-1.3-1.2-2.3-2.5-2.3C119,21.5,79,21.5,79,21.5z
	 M81.3,26.5h35.4l2.7,32.8c0.5,5.8-1.4,11.3-5.3,15.6s-9.3,6.6-15.1,6.6s-11.2-2.4-15.1-6.6c-3.9-4.3-5.8-9.8-5.3-15.6L81.3,26.5z
	 M89,31.5c-1.4,0-2.5,1.1-2.5,2.5v37.7c0,1.4,1.1,2.5,2.5,2.5s2.5-1.1,2.5-2.5V34C91.5,32.6,90.4,31.5,89,31.5z M6.5,66.5h45v55h-10
	v-10H44c1.4,0,2.5-1.1,2.5-2.5s-1.1-2.5-2.5-2.5h-2.5V74c0-1.4-1.1-2.5-2.5-2.5s-2.5,1.1-2.5,2.5v47.5h-30v-10H29
	c1.4,0,2.5-1.1,2.5-2.5s-1.1-2.5-2.5-2.5H6.5V66.5z"/>
</svg>
