<?xml version="1.0" encoding="utf-8"?>
<!-- Generator: Adobe Illustrator 21.0.0, SVG Export Plug-In . SVG Version: 6.00 Build 0)  -->
<svg version="1.1"
	 id="图层_1" xmlns:cc="http://creativecommons.org/ns#" xmlns:dc="http://purl.org/dc/elements/1.1/" xmlns:inkscape="http://www.inkscape.org/namespaces/inkscape" xmlns:rdf="http://www.w3.org/1999/02/22-rdf-syntax-ns#" xmlns:sodipodi="http://sodipodi.sourceforge.net/DTD/sodipodi-0.dtd" xmlns:svg="http://www.w3.org/2000/svg"
	 xmlns="http://www.w3.org/2000/svg" xmlns:xlink="http://www.w3.org/1999/xlink" x="0px" y="0px" viewBox="0 0 128 160"
	 style="enable-background:new 0 0 128 160;" xml:space="preserve">
<path d="M44,1.5c-1.4,0-2.5,1.1-2.5,2.5v12.5H4c-1.4,0-2.5,1.1-2.5,2.5v70c0,1.4,1.1,2.5,2.5,2.5h17.5v5H4c-1.4,0-2.5,1.1-2.5,2.5
	v10c0,6,4.3,11.1,10,12.2v2.8c0,1.4,1.1,2.5,2.5,2.5s2.5-1.1,2.5-2.5v-2.5h95v2.5c0,1.4,1.1,2.5,2.5,2.5s2.5-1.1,2.5-2.5v-2.8
	c5.7-1.2,10-6.2,10-12.2V99c0-1.4-1.1-2.5-2.5-2.5h-17.5v-5H124c1.4,0,2.5-1.1,2.5-2.5V19c0-1.4-1.1-2.5-2.5-2.5H86.5V4
	c0-1.4-1.1-2.5-2.5-2.5H44z M46.5,6.5h35v10h-35V6.5z M6.5,21.5h55v65h-55V21.5z M66.5,21.5h55v65h-55V21.5z M14,26.5
	c-1.4,0-2.5,1.1-2.5,2.5v50c0,1.4,1.1,2.5,2.5,2.5s2.5-1.1,2.5-2.5V31.5H54c1.4,0,2.5-1.1,2.5-2.5s-1.1-2.5-2.5-2.5H14z M74,26.5
	c-1.4,0-2.5,1.1-2.5,2.5v50c0,1.4,1.1,2.5,2.5,2.5s2.5-1.1,2.5-2.5V31.5H114c1.4,0,2.5-1.1,2.5-2.5s-1.1-2.5-2.5-2.5H74z M44.2,38.9
	c-0.8-0.1-1.6,0.3-2.1,1l-20,25c-0.9,1.1-0.7,2.7,0.4,3.5c0.5,0.4,1,0.5,1.6,0.5c0.7,0,1.5-0.3,2-0.9l20-25c0.7-1,0.5-2.6-0.5-3.5
	C45.2,39.2,44.7,39,44.2,38.9z M104.2,38.9c-0.8-0.1-1.6,0.3-2.1,1l-20,25c-0.9,1.1-0.7,2.7,0.4,3.5c0.5,0.4,1,0.5,1.6,0.5
	c0.7,0,1.5-0.3,2-0.9l20-25c0.7-1,0.5-2.6-0.5-3.5C105.2,39.2,104.7,39,104.2,38.9z M26.5,91.5h75v5h-75V91.5z M6.5,101.5h115v7.5
	c0,4.1-3.4,7.5-7.5,7.5H14c-4.1,0-7.5-3.4-7.5-7.5V101.5z"/>
</svg>
